<svg height="354pt" viewBox="0 0 354.00032 354" width="354pt" xmlns="http://www.w3.org/2000/svg"><path d="m207 324c-97.601562 0-177-79.398438-177-177-.039062-39.613281 13.273438-78.085938 37.796875-109.199219-42.796875 33.511719-67.80078125 84.84375-67.796875 139.199219 0 97.601562 79.398438 177 177 177 54.355469 0 105.691406-25 139.199219-67.800781-31.113281 24.523437-69.585938 37.839843-109.199219 37.800781zm0 0" fill="#d4e1f4"/><path d="m336.507812 23.363281c-2.671874-2.796875-7.105468-2.898437-9.902343-.226562l-52.476563 50.125-27.734375-27.738281c-2.734375-2.734376-7.167969-2.734376-9.902343 0-2.730469 2.734374-2.730469 7.167968 0 9.902343l32.574218 32.574219c2.691406 2.691406 7.035156 2.738281 9.785156.109375l57.425782-54.847656c2.796875-2.671875 2.898437-7.105469.230468-9.898438zm0 0" fill="#1ae5be"/><path d="m177 109.292969c16.523438.019531 29.914062 13.410156 29.933594 29.933593 0 3.867188 3.132812 7 7 7 3.867187 0 7-3.132812 7-7-.027344-21.550781-15.664063-39.910156-36.933594-43.371093v-13.855469c0-3.867188-3.132812-7-7-7s-7 3.132812-7 7v13.855469c-22.601562 3.660156-38.605469 24.058593-36.773438 46.882812 1.828126 22.820313 20.878907 40.410157 43.773438 40.417969 16.460938 0 29.835938 13.292969 29.929688 29.757812.097656 16.460938-13.121094 29.910157-29.582032 30.101563-.117187-.007813-.230468-.019531-.347656-.019531s-.230469.011718-.347656.019531c-16.386719-.207031-29.566406-13.539063-29.585938-29.925781 0-3.867188-3.132812-7-7-7-3.867187 0-7 3.132812-7 7 .027344 21.550781 15.660156 39.910156 36.933594 43.371094v15.539062c0 3.867188 3.132812 7 7 7s7-3.132812 7-7v-15.539062c22.605469-3.648438 38.617188-24.054688 36.785156-46.878907-1.828125-22.824219-20.886718-40.417969-43.785156-40.417969-10.734375.058594-20.683594-5.632812-26.066406-14.917968-5.386719-9.289063-5.386719-20.746094 0-30.035156 5.382812-9.285157 15.332031-14.976563 26.066406-14.914063zm0 0" fill="#1ae5be"/><path d="m331.21875 105.050781c-3.566406 1.492188-5.246094 5.59375-3.757812 9.160157 8.320312 19.886718 12.582031 41.234374 12.539062 62.789062 0 89.878906-73.121094 163-163 163s-163-73.121094-163-163 73.121094-163 163-163c18.265625-.023438 36.40625 3.03125 53.65625 9.039062 2.363281.839844 5 .347657 6.902344-1.289062 1.902344-1.632812 2.785156-4.164062 2.3125-6.628906s-2.230469-4.488282-4.605469-5.300782c-18.734375-6.523437-38.429687-9.8437495-58.265625-9.820312-97.601562 0-177 79.398438-177 177s79.398438 177 177 177 177-79.398438 177-177c.042969-23.410156-4.585938-46.59375-13.621094-68.191406-1.492187-3.566406-5.59375-5.246094-9.160156-3.757813zm0 0" fill="#0635c9"/></svg>