<svg id="Capa_1" enable-background="new 0 0 497 497" height="512" viewBox="0 0 497 497" width="512" xmlns="http://www.w3.org/2000/svg"><g><path d="m253.04 376.698-39.16 15.28-3.14 11c-4.53 15.87-21.74 28.85-38.24 28.85v7.5h129.5z" fill="#565959"/><path d="m286.26 402.978-3.14-11-8.62-30.14-26-30.16-26 30.16-8.62 30.14c13.05-.22 26.1-.32 39.16-.28l3.22 11.28c4.53 15.87 21.74 28.85 38.24 28.85l15 7.5 15-7.5c-16.5 0-33.71-12.98-38.24-28.85z" fill="#404242"/><path d="m463.853 372.877c-143.179-14.953-287.527-14.953-430.706 0-17.717 1.85-33.146-12.005-33.147-29.819 0-63.288 0-199.611 0-262.9 0-17.813 15.429-31.669 33.147-29.818 143.179 14.953 287.527 14.953 430.706 0 17.717-1.85 33.147 12.005 33.147 29.819v262.9c0 17.813-15.429 31.668-33.147 29.818z" fill="#565959"/><path d="m466.999 80.171c-9.984 1.041-19.986 2.004-30 2.904l-104.999 128.533 105 128.534c10.014.899 20.016 1.863 30 2.904z" fill="#4b88d5"/><path d="m248.5 91.555c-72.686 0-146.031-3.826-218.5-11.384l.001 262.875c72.469-7.558 145.814-11.384 218.5-11.384 62.671 0 125.832 2.852 188.499 8.48v-257.067c-62.668 5.628-125.829 8.48-188.5 8.48z" fill="#69a7ff"/><path d="m381 446.826h-265c-4.143 0-7.5-3.357-7.5-7.5s3.357-7.5 7.5-7.5h265c4.143 0 7.5 3.357 7.5 7.5s-3.357 7.5-7.5 7.5z" fill="#404242"/></g></svg>