<?xml version="1.0" encoding="iso-8859-1"?>
<!-- Generator: Adobe Illustrator 19.0.0, SVG Export Plug-In . SVG Version: 6.00 Build 0)  -->
<svg version="1.1" id="Capa_1" xmlns="http://www.w3.org/2000/svg" xmlns:xlink="http://www.w3.org/1999/xlink" x="0px" y="0px"
	 viewBox="0 0 512.001 512.001" style="enable-background:new 0 0 512.001 512.001;" xml:space="preserve">
<path style="fill:#495059;" d="M352.854,504.5H159.146c-28.139,0-50.951-22.811-50.951-50.951V58.451
	c0-28.139,22.811-50.951,50.951-50.951h193.709c28.139,0,50.951,22.811,50.951,50.951v395.098
	C403.805,481.689,380.994,504.5,352.854,504.5z"/>
<path style="opacity:0.15;enable-background:new    ;" d="M183.982,7.5h-24.836c-28.139,0-50.951,22.812-50.951,50.951v395.098
	c0,28.139,22.811,50.951,50.951,50.951h193.709c20.184,0,37.625-11.738,45.874-28.76C166.415,398.524,169.842,73.171,183.982,7.5z"
	/>
<path style="fill:#7397DA;" d="M296.371,44.054l-1.891,7.251c-1.242,4.761-5.542,8.083-10.462,8.083h-56.036
	c-4.92,0-9.22-3.322-10.462-8.083l-1.891-7.251c-1.142-4.378-5.096-7.433-9.62-7.433h-46.821c-12.08,0-21.872,9.793-21.872,21.872
	v395.013c0,12.08,9.793,21.872,21.872,21.872h193.624c12.08,0,21.872-9.793,21.872-21.872V58.493
	c0-12.08-9.793-21.872-21.872-21.872h-46.821C301.467,36.621,297.513,39.676,296.371,44.054z"/>
<path style="fill:#A8D1EC;" d="M159.188,475.379h193.624c12.08,0,21.872-9.793,21.872-21.872V214.213
	c-33.341-10.54-71.376-17.352-118.685-17.352s-85.344,6.812-118.685,17.352v239.293
	C137.315,465.586,147.108,475.379,159.188,475.379z"/>
<path style="fill:#FFFFFF;" d="M159.188,475.379h193.624c12.08,0,21.872-9.793,21.872-21.872V256
	c-33.341-10.54-71.376-17.352-118.685-17.352S170.656,245.46,137.315,256v197.507C137.315,465.586,147.108,475.379,159.188,475.379z
	"/>
<g>
	<ellipse style="fill:#F8B8BD;" cx="185.73" cy="132.74" rx="25.93" ry="20.649"/>
	<ellipse style="fill:#F8B8BD;" cx="326.27" cy="132.74" rx="25.93" ry="20.649"/>
</g>
<path style="fill:#495059;" d="M256,135.655L256,135.655c-10.375,0-18.786-8.411-18.786-18.786v-13.658
	c0-2.832,2.296-5.128,5.128-5.128h27.316c2.832,0,5.128,2.296,5.128,5.128v13.658C274.786,127.245,266.375,135.655,256,135.655z"/>
<path style="opacity:0.15;fill:#003A63;enable-background:new    ;" d="M371.392,465.045
	C189.391,382.599,172.158,134.796,180.109,36.621h-20.921c-12.08,0-21.872,9.793-21.872,21.872v395.013
	c0,12.08,9.793,21.872,21.872,21.872h193.624C360.656,475.379,367.533,471.247,371.392,465.045z"/>
<path style="fill:#E68392;" d="M312.747,323.104h-36.131v-36.13c0-5.077-4.115-9.192-9.192-9.192h-22.849
	c-5.077,0-9.192,4.115-9.192,9.192v36.13h-36.131c-5.077,0-9.192,4.115-9.192,9.192v22.849c0,5.077,4.116,9.192,9.192,9.192h36.131
	v36.131c0,5.077,4.115,9.192,9.192,9.192h22.849c5.077,0,9.192-4.115,9.192-9.192v-36.131h36.131c5.077,0,9.192-4.116,9.192-9.192
	v-22.849C321.939,327.22,317.824,323.104,312.747,323.104z"/>
<path style="opacity:0.15;fill:#8D4330;enable-background:new    ;" d="M244.576,410.63h22.848c5.077,0,9.192-4.115,9.192-9.192
	v-8.021c-18.137-21.179-33.103-44.67-45.404-69.342h-31.959c-5.077,0-9.192,4.115-9.192,9.192v22.849
	c0,5.077,4.116,9.192,9.192,9.192h36.131v36.13C235.384,406.515,239.499,410.63,244.576,410.63z"/>
<path d="M190.061,89.724c-4.143,0-7.5,3.358-7.5,7.5v11.13c0,4.142,3.357,7.5,7.5,7.5s7.5-3.358,7.5-7.5v-11.13
	C197.561,93.081,194.203,89.724,190.061,89.724z M321.94,115.854c4.142,0,7.5-3.358,7.5-7.5v-11.13c0-4.142-3.358-7.5-7.5-7.5
	c-4.143,0-7.5,3.358-7.5,7.5v11.13C314.44,112.496,317.797,115.854,321.94,115.854z M284.15,33.648c0-3.97-3.218-7.188-7.189-7.188
	c-3.97,0-7.189,3.219-7.189,7.188c0,3.97,3.219,7.189,7.189,7.189C280.931,40.837,284.15,37.618,284.15,33.648z M267.424,270.281
	h-22.848c-9.204,0-16.692,7.488-16.692,16.692v28.63h-28.631c-9.204,0-16.692,7.488-16.692,16.692v22.848
	c0,9.204,7.488,16.692,16.692,16.692h28.631v28.63c0,9.204,7.488,16.692,16.692,16.692h22.848c9.204,0,16.692-7.488,16.692-16.692
	v-28.63h28.631c9.204,0,16.692-7.488,16.692-16.692v-22.848c0-9.204-7.488-16.692-16.692-16.692h-28.631v-28.63
	C284.116,277.77,276.628,270.281,267.424,270.281z M312.747,330.604c0.934,0,1.692,0.759,1.692,1.692v22.848
	c0,0.933-0.759,1.692-1.692,1.692h-36.131c-4.143,0-7.5,3.358-7.5,7.5v36.13c0,0.933-0.759,1.692-1.692,1.692h-22.848
	c-0.934,0-1.692-0.759-1.692-1.692v-36.13c0-4.142-3.357-7.5-7.5-7.5h-36.131c-0.934,0-1.692-0.759-1.692-1.692v-22.848
	c0-0.933,0.759-1.692,1.692-1.692h36.131c4.143,0,7.5-3.358,7.5-7.5v-36.13c0-0.933,0.759-1.692,1.692-1.692h22.848
	c0.934,0,1.692,0.759,1.692,1.692v36.13c0,4.142,3.357,7.5,7.5,7.5H312.747z M403.806,83.902c4.143,0,7.5-3.358,7.5-7.5V58.451
	C411.306,26.221,385.085,0,352.854,0H159.145c-32.23,0-58.451,26.221-58.451,58.451V453.55c0,32.23,26.221,58.451,58.451,58.451
	h193.709c32.23,0,58.451-26.221,58.451-58.451V112.086c0-4.142-3.357-7.5-7.5-7.5s-7.5,3.358-7.5,7.5v341.463
	c0,23.959-19.492,43.451-43.451,43.451H159.145c-23.959,0-43.451-19.492-43.451-43.451V58.451c0-23.959,19.492-43.451,43.451-43.451
	h193.709c23.959,0,43.451,19.492,43.451,43.451v17.952C396.306,80.544,399.663,83.902,403.806,83.902z M282.286,116.869v-13.658
	c0-6.963-5.665-12.628-12.628-12.628h-27.316c-6.963,0-12.628,5.665-12.628,12.628v13.658c0,14.494,11.792,26.286,26.286,26.286
	C270.494,143.155,282.286,131.363,282.286,116.869z M244.714,116.869v-11.286h22.572v11.286c0,6.223-5.063,11.286-11.286,11.286
	S244.714,123.092,244.714,116.869z M277.272,441.414h-42.545c-4.142,0-7.5,3.358-7.5,7.5s3.358,7.5,7.5,7.5h42.545
	c4.143,0,7.5-3.358,7.5-7.5S281.415,441.414,277.272,441.414z M137.315,348.53c-4.143,0-7.5,3.358-7.5,7.5v97.476
	c0,16.196,13.177,29.373,29.372,29.373h193.625c16.195,0,29.372-13.176,29.372-29.373V256.067c0-0.026,0-0.051,0-0.077v-41.71
	c0-0.026,0-0.051,0-0.077V58.494c0-16.196-13.177-29.373-29.372-29.373h-46.821c-7.936,0-14.876,5.363-16.877,13.04l-1.893,7.252
	c-0.38,1.457-1.697,2.475-3.204,2.475h-56.035c-1.507,0-2.824-1.018-3.205-2.476l-1.891-7.25
	c-2.002-7.678-8.942-13.041-16.878-13.041h-46.821c-16.195,0-29.372,13.176-29.372,29.373v155.71c0,0.026,0,0.051,0,0.077v41.71
	c0,0.026,0,0.051,0,0.077v64.486c0,4.142,3.357,7.5,7.5,7.5s7.5-3.358,7.5-7.5v-58.999c34.63-10.354,71.063-15.406,111.185-15.406
	s76.554,5.052,111.185,15.406v191.953c0,7.925-6.447,14.373-14.372,14.373H159.188c-7.925,0-14.372-6.447-14.372-14.373V356.03
	C144.815,351.888,141.458,348.53,137.315,348.53z M144.815,58.494c0-7.925,6.447-14.373,14.372-14.373h46.821
	c1.111,0,2.082,0.75,2.363,1.826l1.891,7.25c2.103,8.061,9.389,13.691,17.72,13.691h56.035c8.331,0,15.617-5.63,17.719-13.69
	l1.893-7.252c0.28-1.075,1.251-1.825,2.362-1.825h46.821c7.925,0,14.372,6.447,14.372,14.373v145.65
	c-34.752-9.928-71.234-14.783-111.185-14.783s-76.433,4.855-111.185,14.783L144.815,58.494L144.815,58.494z M256,231.148
	c-39.951,0-76.433,4.854-111.185,14.783v-26.164c34.63-10.354,71.063-15.406,111.185-15.406s76.554,5.052,111.185,15.406v26.164
	C332.434,236.002,295.951,231.148,256,231.148z M235.374,41.148h16.743c4.143,0,7.5-3.358,7.5-7.5s-3.357-7.5-7.5-7.5h-16.743
	c-4.143,0-7.5,3.358-7.5,7.5C227.874,37.79,231.231,41.148,235.374,41.148z"/>
<g>
</g>
<g>
</g>
<g>
</g>
<g>
</g>
<g>
</g>
<g>
</g>
<g>
</g>
<g>
</g>
<g>
</g>
<g>
</g>
<g>
</g>
<g>
</g>
<g>
</g>
<g>
</g>
<g>
</g>
</svg>
